<?xml version="1.0" standalone="no"?><!DOCTYPE svg PUBLIC "-//W3C//DTD SVG 1.1//EN" "http://www.w3.org/Graphics/SVG/1.1/DTD/svg11.dtd"><svg t="1670302101557" class="icon" viewBox="0 0 1024 1024" version="1.1" xmlns="http://www.w3.org/2000/svg" p-id="5809" xmlns:xlink="http://www.w3.org/1999/xlink" width="200" height="200"><path d="M861.866667 180.906667a26.453333 26.453333 0 0 0-29.184 26.965333v623.616a60.416 60.416 0 0 1-58.368 53.76H261.290667c-34.986667 0-75.776-26.794667-75.776-53.76v-59.050667c0-26.965333 34.986667-43.008 69.973333-43.008h489.642667a26.453333 26.453333 0 0 0 29.184-26.965333V175.616c0-59.221333-46.592-96.768-116.565334-96.768H261.290667c-64.170667 0-128.170667 32.256-128.170667 96.768V853.333333c5.802667 48.469333 58.197333 86.186667 110.762667 91.477334h530.432c64.170667 0 116.565333-48.469333 116.565333-102.4V207.872a30.037333 30.037333 0 0 0-29.013333-26.965333zM750.933333 783.189333H273.066667A26.965333 26.965333 0 1 0 273.066667 836.266667h477.866666a26.965333 26.965333 0 1 0 0-53.76z" fill="#2499F6" p-id="5810"></path></svg>