<?xml version="1.0" standalone="no"?><!DOCTYPE svg PUBLIC "-//W3C//DTD SVG 1.1//EN" "http://www.w3.org/Graphics/SVG/1.1/DTD/svg11.dtd"><svg t="1670302053612" class="icon" viewBox="0 0 1024 1024" version="1.1" xmlns="http://www.w3.org/2000/svg" p-id="3666" xmlns:xlink="http://www.w3.org/1999/xlink" width="200" height="200"><path d="M882.215385 907.421538c0 34.658462-28.356923 63.015385-63.015385 63.015385H204.8c-34.658462 0-63.015385-28.356923-63.015385-63.015385v-173.292307c0-34.658462 28.356923-63.015385 63.015385-63.015385h614.4c34.658462 0 63.015385 28.356923 63.015385 63.015385v173.292307z" fill="#5C9EFF" p-id="3667"></path><path d="M173.292308 907.421538v-173.292307c0-34.658462 28.356923-63.015385 63.015384-63.015385h-31.507692c-34.658462 0-63.015385 28.356923-63.015385 63.015385v173.292307c0 34.658462 28.356923 63.015385 63.015385 63.015385h31.507692c-34.658462 0-63.015385-28.356923-63.015384-63.015385z" fill="#94C1FF" p-id="3668"></path><path d="M850.707692 907.421538v-173.292307c0-34.658462-28.356923-63.015385-63.015384-63.015385h31.507692c34.658462 0 63.015385 28.356923 63.015385 63.015385v173.292307c0 34.658462-28.356923 63.015385-63.015385 63.015385h-31.507692c34.658462 0 63.015385-28.356923 63.015384-63.015385z" fill="#2287FF" p-id="3669"></path><path d="M897.969231 797.144615c-33.083077-12.603077-94.523077-36.233846-141.784616-59.864615-9.452308-4.726154-18.904615-9.452308-26.781538-14.178462-1.575385 4.726154-55.138462 121.304615-217.403077 121.304616-165.415385 0-217.403077-116.578462-217.403077-121.304616-7.876923 4.726154-17.329231 9.452308-26.781538 14.178462-47.261538 23.630769-108.701538 47.261538-141.784616 59.864615-63.015385 23.630769-94.523077 47.261538-94.523077 110.276923v94.523077h960.984616v-94.523077c0-63.015385-31.507692-86.646154-94.523077-110.276923z" fill="#94C1FF" p-id="3670"></path><path d="M267.815385 737.28c9.452308-4.726154 18.904615-9.452308 26.781538-14.178462 1.575385 3.150769 12.603077 23.630769 14.178462 26.781539-4.726154 3.150769-23.630769 11.027692-28.356923 12.603077-9.452308-14.178462-12.603077-25.206154-12.603077-25.206154zM308.775385 749.883077z" fill="#D7E9FF" p-id="3671"></path><path d="M63.015385 923.175385c0-63.015385 31.507692-86.646154 94.523077-110.276923 29.932308-11.027692 78.769231-29.932308 122.88-50.412308-9.452308-14.178462-12.603077-25.206154-12.603077-25.206154-47.261538 23.630769-108.701538 47.261538-141.784616 59.864615-63.015385 23.630769-94.523077 47.261538-94.523077 110.276923v94.523077h31.507693v-78.76923z" fill="#D7E9FF" p-id="3672"></path><path d="M715.224615 749.883077zM897.969231 797.144615c-33.083077-12.603077-94.523077-36.233846-141.784616-59.864615v0c-9.452308-4.726154-18.904615-9.452308-26.781538-14.178462-1.575385 3.150769-12.603077 23.630769-14.178462 26.781539 4.726154 3.150769 23.630769 11.027692 28.356923 12.603077 44.110769 20.48 92.947692 39.384615 122.88 50.412308 63.015385 23.630769 94.523077 47.261538 94.523077 110.276923v78.76923h31.507693v-94.523077c0-63.015385-31.507692-86.646154-94.523077-110.276923z" fill="#5C9EFF" p-id="3673"></path><path d="M512 734.129231c53.563077 0 124.455385-44.110769 181.169231-110.276923v63.015384c0 9.452308 14.178462 22.055385 36.233846 36.233846-1.575385 4.726154-55.138462 121.304615-217.403077 121.304616-165.415385 0-217.403077-116.578462-217.403077-121.304616 22.055385-12.603077 36.233846-25.206154 36.233846-36.233846v-63.015384c56.713846 67.741538 127.606154 110.276923 181.169231 110.276923z" fill="#D7E9FF" p-id="3674"></path><path d="M786.116923 356.036923l1.575385 31.507692c0 88.221538-40.96 173.292308-94.523077 236.307693-56.713846 66.166154-127.606154 110.276923-181.169231 110.276923-53.563077 0-124.455385-44.110769-181.169231-110.276923-53.563077-63.015385-94.523077-148.086154-94.523077-236.307693v-28.356923c88.221538-47.261538 289.870769-140.209231 472.615385-129.181538l77.193846 126.030769z" fill="#D7E9FF" p-id="3675"></path><path d="M786.116923 356.036923l-31.507692-51.987692 1.575384 83.495384c0 88.221538-40.96 173.292308-94.523077 236.307693-51.987692 59.864615-113.427692 102.4-165.415384 108.701538 4.726154 0 11.027692 1.575385 15.753846 1.575385 53.563077 0 124.455385-44.110769 181.169231-110.276923 53.563077-63.015385 94.523077-148.086154 94.523077-236.307693l-1.575385-31.507692z" fill="#94C1FF" p-id="3676"></path><path d="M362.338462 623.852308c-53.563077-63.015385-94.523077-148.086154-94.523077-236.307693v-44.110769l-31.507693 15.753846v28.356923c0 88.221538 40.96 173.292308 94.523077 236.307693 56.713846 66.166154 127.606154 110.276923 181.169231 110.276923 4.726154 0 11.027692 0 15.753846-1.575385-51.987692-6.301538-115.003077-47.261538-165.415384-108.701538z" fill="#FFFFFF" p-id="3677"></path><path d="M512 734.129231c-53.563077 0-124.455385-44.110769-181.169231-110.276923v15.753846c56.713846 66.166154 127.606154 110.276923 181.169231 110.276923 53.563077 0 124.455385-44.110769 181.169231-110.276923v-15.753846c-56.713846 67.741538-127.606154 110.276923-181.169231 110.276923zM299.323077 56.713846s526.178462-223.704615 486.793846 299.323077l-77.193846-126.030769c-237.883077-14.178462-512 149.661538-519.876923 154.387692 0-236.307692 154.387692-302.473846 154.387692-302.473846L299.323077 56.713846z" fill="#94C1FF" p-id="3678"></path><path d="M510.424615 9.452308c124.455385 4.726154 248.910769 67.741538 245.76 299.323077l29.932308 47.261538C808.172308 63.015385 652.209231 4.726154 510.424615 9.452308z" fill="#5C9EFF" p-id="3679"></path><path d="M374.941538 83.495385L330.830769 56.713846S431.655385 14.178462 543.507692 9.452308C420.627692 4.726154 299.323077 56.713846 299.323077 56.713846l44.110769 26.781539S189.046154 149.661538 189.046154 385.969231c1.575385-1.575385 12.603077-7.876923 31.507692-17.329231 7.876923-222.129231 154.387692-285.144615 154.387692-285.144615z" fill="#D7E9FF" p-id="3680"></path><path d="M318.227692 745.156923c20.48-14.178462 44.110769-33.083077 44.11077-42.535385v-29.932307c-11.027692-11.027692-22.055385-22.055385-31.507693-33.083077v47.261538c0 9.452308-33.083077 33.083077-31.507692 31.507693 4.726154 7.876923 9.452308 17.329231 18.904615 26.781538z" fill="#FFFFFF" p-id="3681"></path><path d="M723.101538 719.950769c-4.726154-3.150769-29.932308-22.055385-29.932307-31.507692v-47.261539c-9.452308 12.603077-20.48 23.630769-31.507693 33.083077v29.932308c0 9.452308 23.630769 28.356923 44.11077 40.96-29.932308 36.233846-88.221538 83.495385-193.772308 83.495385-135.483077 0-195.347692-78.769231-212.676923-110.276923-1.575385 1.575385-3.150769 3.150769-6.301539 3.150769 1.575385 4.726154 51.987692 121.304615 217.403077 121.304615 163.84 0 217.403077-116.578462 217.403077-121.304615 0 0-1.575385-1.575385-4.726154-1.575385z" fill="#94C1FF" p-id="3682"></path><path d="M252.061538 718.375385l-78.76923 31.507692v252.061538h78.76923z" fill="#5C9EFF" p-id="3683"></path><path d="M252.061538 724.676923v-6.301538l-78.76923 31.507692v252.061538h15.753846v-252.061538z" fill="#94C1FF" p-id="3684"></path><path d="M771.938462 718.375385l78.76923 31.507692v252.061538h-78.76923z" fill="#5C9EFF" p-id="3685"></path><path d="M771.938462 724.676923v-6.301538l78.76923 31.507692v252.061538h-15.753846v-252.061538z" fill="#2287FF" p-id="3686"></path><path d="M267.815385 745.156923c-3.150769 0-6.301538-1.575385-6.301539-4.726154-1.575385-3.150769 0-7.876923 3.150769-11.027692 55.138462-28.356923 58.289231-40.96 58.289231-42.535385 0-4.726154 3.150769-7.876923 7.876923-7.876923s7.876923 3.150769 7.876923 7.876923c0 11.027692-7.876923 26.781538-67.741538 56.713846-1.575385 1.575385-1.575385 1.575385-3.150769 1.575385zM992.492308 1009.821538H31.507692c-4.726154 0-7.876923-3.150769-7.876923-7.876923v-94.523077c0-67.741538 34.658462-92.947692 99.249231-118.153846 9.452308-3.150769 18.904615-7.876923 31.507692-12.603077 4.726154-1.575385 7.876923 0 9.452308 4.726154 1.575385 4.726154 0 7.876923-4.726154 9.452308-12.603077 4.726154-22.055385 9.452308-31.507692 12.603077-59.864615 22.055385-89.796923 44.110769-89.796923 102.4V992.492308h945.230769v-86.646154c0-59.864615-28.356923-80.344615-89.796923-102.4-9.452308-3.150769-18.904615-7.876923-31.507692-12.603077-4.726154-1.575385-6.301538-6.301538-4.726154-9.452308 1.575385-4.726154 6.301538-6.301538 9.452307-4.726154 12.603077 4.726154 22.055385 9.452308 31.507693 12.603077 64.590769 23.630769 99.249231 50.412308 99.249231 118.153846v94.523077c3.150769 4.726154 0 7.876923-4.726154 7.876923zM756.184615 745.156923c-1.575385 0-3.150769 0-3.150769-1.575385-59.864615-29.932308-67.741538-47.261538-67.741538-56.713846 0-4.726154 3.150769-7.876923 7.876923-7.876923s7.876923 3.150769 7.876923 7.876923c0 1.575385 3.150769 14.178462 58.289231 42.535385 3.150769 1.575385 4.726154 6.301538 3.150769 11.027692-1.575385 3.150769-3.150769 4.726154-6.301539 4.726154zM512 742.006154c-107.126154 0-283.569231-165.415385-283.569231-354.461539 0-4.726154 3.150769-7.876923 7.876923-7.876923s7.876923 3.150769 7.876923 7.876923c0 174.867692 166.990769 338.707692 267.815385 338.707693s267.815385-163.84 267.815385-338.707693c0-4.726154 3.150769-7.876923 7.876923-7.876923s7.876923 3.150769 7.876923 7.876923c0 189.046154-176.443077 354.461538-283.569231 354.461539z" fill="#116FFF" p-id="3687"></path><path d="M330.830769 694.744615c-4.726154 0-7.876923-3.150769-7.876923-7.876923v-63.015384c0-4.726154 3.150769-7.876923 7.876923-7.876923s7.876923 3.150769 7.876923 7.876923v63.015384c0 4.726154-3.150769 7.876923-7.876923 7.876923zM693.169231 694.744615c-4.726154 0-7.876923-3.150769-7.876923-7.876923v-63.015384c0-4.726154 3.150769-7.876923 7.876923-7.876923s7.876923 3.150769 7.876923 7.876923v63.015384c0 4.726154-3.150769 7.876923-7.876923 7.876923zM189.046154 393.846154c-1.575385 0-3.150769 0-3.150769-1.575385-3.150769-1.575385-4.726154-4.726154-4.726154-6.301538 0-198.498462 108.701538-280.418462 146.510769-302.473846l-31.507692-18.904616c-1.575385-1.575385-3.150769-3.150769-3.15077-4.726154s0-4.726154 1.575385-6.301538c4.726154-4.726154 206.375385-86.646154 351.310769-31.507692 113.427692 44.110769 163.84 155.963077 149.661539 335.556923 0 3.150769-3.150769 6.301538-6.301539 6.301538-3.150769 1.575385-6.301538 0-7.876923-3.150769l-75.618461-121.304615c-234.732308-12.603077-508.849231 152.812308-512 154.387692H189.046154z m127.606154-335.556923L346.584615 77.193846c3.150769 1.575385 4.726154 4.726154 3.15077 7.876923 0 3.150769-1.575385 6.301538-4.726154 6.301539-1.575385 0-143.36 64.590769-149.661539 281.993846 56.713846-31.507692 299.323077-162.264615 512-149.661539 3.150769 0 4.726154 1.575385 6.301539 3.15077l64.590769 103.975384c4.726154-130.756923-26.781538-220.553846-96.098462-270.966154-116.578462-83.495385-310.350769-20.48-365.48923-1.575384zM512 852.283077c-173.292308 0-225.28-126.030769-225.28-127.606154-1.575385-4.726154 0-7.876923 4.726154-9.452308 4.726154-1.575385 7.876923 0 9.452308 4.726154 0 1.575385 47.261538 116.578462 211.101538 116.578462 160.689231 0 211.101538-115.003077 211.101538-116.578462 1.575385-4.726154 6.301538-6.301538 9.452308-4.726154 4.726154 1.575385 6.301538 6.301538 4.726154 9.452308 0 3.150769-55.138462 127.606154-225.28 127.606154zM252.061538 995.643077c-4.726154 0-7.876923-3.150769-7.876923-7.876923V718.375385c0-4.726154 3.150769-7.876923 7.876923-7.876923s7.876923 3.150769 7.876924 7.876923v269.390769c0 4.726154-3.150769 7.876923-7.876924 7.876923z" fill="#116FFF" p-id="3688"></path><path d="M173.292308 757.76c-3.150769 0-6.301538-1.575385-7.876923-4.726154-1.575385-4.726154 0-7.876923 4.726153-9.452308l78.769231-31.507692c4.726154-1.575385 7.876923 0 9.452308 4.726154s0 7.876923-4.726154 9.452308l-78.769231 31.507692H173.292308z" fill="#116FFF" p-id="3689"></path><path d="M173.292308 994.067692c-4.726154 0-7.876923-3.150769-7.876923-7.876923v-236.307692c0-4.726154 3.150769-7.876923 7.876923-7.876923s7.876923 3.150769 7.876923 7.876923v236.307692c0 4.726154-3.150769 7.876923-7.876923 7.876923zM771.938462 995.643077c-4.726154 0-7.876923-3.150769-7.876924-7.876923V718.375385c0-4.726154 3.150769-7.876923 7.876924-7.876923s7.876923 3.150769 7.876923 7.876923v269.390769c0 4.726154-3.150769 7.876923-7.876923 7.876923z" fill="#116FFF" p-id="3690"></path><path d="M850.707692 757.76h-3.150769l-78.769231-31.507692c-4.726154-1.575385-6.301538-6.301538-4.726154-9.452308s6.301538-6.301538 9.452308-4.726154l78.769231 31.507692c4.726154 1.575385 6.301538 6.301538 4.726154 9.452308 0 3.150769-3.150769 4.726154-6.301539 4.726154z" fill="#116FFF" p-id="3691"></path><path d="M850.707692 994.067692c-4.726154 0-7.876923-3.150769-7.876923-7.876923v-236.307692c0-4.726154 3.150769-7.876923 7.876923-7.876923s7.876923 3.150769 7.876923 7.876923v236.307692c0 4.726154-3.150769 7.876923-7.876923 7.876923zM299.323077 678.990769h-94.523077c-4.726154 0-7.876923-3.150769-7.876923-7.876923s3.150769-7.876923 7.876923-7.876923h94.523077c4.726154 0 7.876923 3.150769 7.876923 7.876923s-3.150769 7.876923-7.876923 7.876923zM141.784615 771.938462c-4.726154 0-7.876923-3.150769-7.876923-7.876924v-29.932307c0-4.726154 3.150769-7.876923 7.876923-7.876923s7.876923 3.150769 7.876923 7.876923v29.932307c0 4.726154-3.150769 7.876923-7.876923 7.876924z" fill="#116FFF" p-id="3692"></path><path d="M141.784615 742.006154c-4.726154 0-7.876923-3.150769-7.876923-7.876923 0-39.384615 31.507692-70.892308 70.892308-70.892308 4.726154 0 7.876923 3.150769 7.876923 7.876923s-3.150769 7.876923-7.876923 7.876923c-29.932308 0-55.138462 25.206154-55.138462 55.138462 0 4.726154-3.150769 7.876923-7.876923 7.876923zM819.2 678.990769h-94.523077c-4.726154 0-7.876923-3.150769-7.876923-7.876923s3.150769-7.876923 7.876923-7.876923h94.523077c4.726154 0 7.876923 3.150769 7.876923 7.876923s-3.150769 7.876923-7.876923 7.876923zM882.215385 771.938462c-4.726154 0-7.876923-3.150769-7.876923-7.876924v-29.932307c0-4.726154 3.150769-7.876923 7.876923-7.876923s7.876923 3.150769 7.876923 7.876923v29.932307c0 4.726154-3.150769 7.876923-7.876923 7.876924z" fill="#116FFF" p-id="3693"></path><path d="M882.215385 742.006154c-4.726154 0-7.876923-3.150769-7.876923-7.876923 0-29.932308-25.206154-55.138462-55.138462-55.138462-4.726154 0-7.876923-3.150769-7.876923-7.876923s3.150769-7.876923 7.876923-7.876923c39.384615 0 70.892308 31.507692 70.892308 70.892308 0 4.726154-3.150769 7.876923-7.876923 7.876923z" fill="#116FFF" p-id="3694"></path></svg>