<?xml version="1.0" standalone="no"?><!DOCTYPE svg PUBLIC "-//W3C//DTD SVG 1.1//EN" "http://www.w3.org/Graphics/SVG/1.1/DTD/svg11.dtd"><svg t="1670304230950" class="icon" viewBox="0 0 1024 1024" version="1.1" xmlns="http://www.w3.org/2000/svg" p-id="9431" xmlns:xlink="http://www.w3.org/1999/xlink" width="200" height="200"><path d="M944.896 216.064L752.64 12.288A38.144 38.144 0 0 0 724.992 0h-614.4a40.448 40.448 0 0 0-39.168 41.472v941.056A40.448 40.448 0 0 0 110.592 1024h806.912a40.192 40.192 0 0 0 38.912-41.472V245.504a44.032 44.032 0 0 0-11.52-29.44zM248.32 216.576h409.6a51.2 51.2 0 0 1 0 102.4h-409.6a51.2 51.2 0 1 1 0-102.4z m521.984 590.848H248.32a51.2 51.2 0 1 1 0-102.4h521.984a51.2 51.2 0 1 1 0 102.4z m0-244.224H248.32a51.2 51.2 0 1 1 0-102.4h521.984a51.2 51.2 0 1 1 0 102.4z" fill="#409AFF" p-id="9432"></path></svg>