<?xml version="1.0" standalone="no"?><!DOCTYPE svg PUBLIC "-//W3C//DTD SVG 1.1//EN" "http://www.w3.org/Graphics/SVG/1.1/DTD/svg11.dtd"><svg t="1670302023003" class="icon" viewBox="0 0 1024 1024" version="1.1" xmlns="http://www.w3.org/2000/svg" p-id="1598" xmlns:xlink="http://www.w3.org/1999/xlink" width="200" height="200"><path d="M631.729231 765.636923l-119.729231-47.261538-118.153846 47.261538-14.178462 6.301539L456.861538 970.436923l12.603077 31.507692h85.07077l14.178461-31.507692L645.907692 771.938462z" fill="#FFFFFF" p-id="1599"></path><path d="M819.2 316.652308C819.2 148.086154 682.141538 9.452308 512 9.452308S204.8 148.086154 204.8 316.652308c0 0 15.753846 244.184615-78.769231 307.2 0 0 78.769231 63.015385 204.8 63.015384h362.338462c126.030769 0 204.8-63.015385 204.8-63.015384-94.523077-63.015385-78.769231-307.2-78.769231-307.2z" fill="#5C9EFF" p-id="1600"></path><path d="M379.667692 771.938462l132.332308-53.563077v-15.753847L362.338462 625.427692v102.4z" fill="#FFFFFF" p-id="1601"></path><path d="M78.769231 907.421538v94.523077h319.803077l-20.48-31.507692-31.507693-47.261538 15.753847-47.261539-94.523077-110.276923-31.507693 11.027692c-23.630769 7.876923-45.686154 14.178462-63.015384 20.48-63.015385 23.630769-94.523077 47.261538-94.523077 110.276923z" fill="#94C1FF" p-id="1602"></path><path d="M110.276923 938.929231c0-63.015385 31.507692-86.646154 94.523077-110.276923 17.329231-6.301538 39.384615-12.603077 63.015385-20.48l28.356923-9.452308-28.356923-33.083077-31.507693 11.027692c-23.630769 7.876923-45.686154 14.178462-63.015384 20.48-63.015385 23.630769-94.523077 47.261538-94.523077 110.276923v94.523077h31.507692v-63.015384z" fill="#D7E9FF" p-id="1603"></path><path d="M379.667692 771.938462L346.584615 686.867692l-22.055384 23.63077-56.713846 55.138461 94.523077 110.276923-15.753847 47.261539 51.987693 78.76923h70.892307z" fill="#48CFAD" p-id="1604"></path><path d="M379.667692 771.938462L346.584615 686.867692l-22.055384 23.63077-56.713846 55.138461 94.523077 110.276923-15.753847 47.261539 51.987693 78.76923h70.892307z" fill="#D7E9FF" p-id="1605"></path><path d="M644.332308 771.938462l-132.332308-53.563077v-15.753847l149.661538-77.193846v102.4z" fill="#FFFFFF" p-id="1606"></path><path d="M236.307692 316.652308C236.307692 152.812308 365.489231 18.904615 527.753846 11.027692c-4.726154 0-11.027692-1.575385-15.753846-1.575384C341.858462 9.452308 204.8 148.086154 204.8 316.652308c0 0 15.753846 244.184615-78.769231 307.2l23.630769 15.753846C255.212308 567.138462 236.307692 316.652308 236.307692 316.652308z" fill="#94C1FF" p-id="1607"></path><path d="M787.692308 316.652308C787.692308 152.812308 658.510769 18.904615 496.246154 11.027692c4.726154 0 11.027692-1.575385 15.753846-1.575384C682.141538 9.452308 819.2 148.086154 819.2 316.652308c0 0-15.753846 244.184615 78.769231 307.2l-23.630769 15.753846C768.787692 567.138462 787.692308 316.652308 787.692308 316.652308z" fill="#2287FF" p-id="1608"></path><path d="M512 9.452308c94.523077 0 179.593846 42.535385 236.307692 110.276923 0 0-37.809231 58.289231-133.907692 116.578461-85.070769 51.987692-217.403077 105.550769-408.024615 119.729231 0-23.630769-1.575385-39.384615-1.575385-39.384615C204.8 148.086154 341.858462 9.452308 512 9.452308z" fill="#656D78" p-id="1609"></path><path d="M512 9.452308c94.523077 0 179.593846 42.535385 236.307692 110.276923 0 0-37.809231 58.289231-133.907692 116.578461-85.070769 51.987692-217.403077 105.550769-408.024615 119.729231 0-23.630769-1.575385-39.384615-1.575385-39.384615C204.8 148.086154 341.858462 9.452308 512 9.452308z" fill="#94C1FF" p-id="1610"></path><path d="M236.307692 316.652308C236.307692 151.236923 367.064615 17.329231 530.904615 9.452308h-18.904615C341.858462 9.452308 204.8 148.086154 204.8 316.652308c0 0 1.575385 15.753846 1.575385 39.384615 11.027692 0 20.48-1.575385 31.507692-3.150769-1.575385-22.055385-1.575385-36.233846-1.575385-36.233846z" fill="#D7E9FF" p-id="1611"></path><path d="M819.2 326.104615c-107.126154-9.452308-204.8-89.796923-204.8-89.796923 96.098462-58.289231 133.907692-116.578462 133.907692-116.578461C792.418462 173.292308 819.2 242.609231 819.2 316.652308v9.452307z" fill="#94C1FF" p-id="1612"></path><path d="M748.307692 119.729231c-56.713846-67.741538-141.784615-110.276923-236.307692-110.276923h-12.603077c86.646154 4.726154 163.84 47.261538 217.403077 110.276923C760.910769 173.292308 787.692308 242.609231 787.692308 316.652308v3.150769c11.027692 1.575385 20.48 3.150769 31.507692 4.726154v-7.876923c0-74.043077-26.781538-143.36-70.892308-196.923077z" fill="#5C9EFF" p-id="1613"></path><path d="M614.4 236.307692s78.769231 66.166154 173.292308 85.07077v34.658461c0 103.975385-56.713846 204.8-126.03077 269.390769-50.412308 47.261538-105.550769 77.193846-149.661538 77.193846s-99.249231-29.932308-149.661538-77.193846c-61.44-58.289231-115.003077-144.935385-124.455385-237.883077v-34.658461c174.867692-15.753846 296.172308-66.166154 376.516923-116.578462z" fill="#D7E9FF" p-id="1614"></path><path d="M756.184615 313.501538v42.535385c0 103.975385-56.713846 204.8-126.030769 269.390769-44.110769 42.535385-92.947692 69.316923-133.907692 75.618462 4.726154 0 11.027692 1.575385 15.753846 1.575384 44.110769 0 99.249231-29.932308 149.661538-77.193846 69.316923-64.590769 126.030769-165.415385 126.03077-269.390769v-34.658461l-31.507693-7.876924z" fill="#94C1FF" p-id="1615"></path><path d="M393.846154 625.427692c-61.44-58.289231-115.003077-144.935385-124.455385-237.883077v-37.80923l-31.507692 3.150769v34.658461c9.452308 92.947692 63.015385 179.593846 124.455385 237.883077 50.412308 47.261538 105.550769 77.193846 149.661538 77.193846 4.726154 0 11.027692 0 15.753846-1.575384-40.96-4.726154-89.796923-33.083077-133.907692-75.618462z" fill="#FFFFFF" p-id="1616"></path><path d="M472.615385 404.873846c0 7.876923-7.876923 15.753846-15.753847 15.753846h-110.276923c-7.876923 0-15.753846-7.876923-15.753846-15.753846v-31.507692c0-7.876923 7.876923-15.753846 15.753846-15.753846h110.276923c7.876923 0 15.753846 7.876923 15.753847 15.753846v31.507692z" fill="#94C1FF" p-id="1617"></path><path d="M368.64 420.627692h33.083077l15.753846-63.015384h-31.507692zM409.6 420.627692h7.876923l17.329231-63.015384h-7.876923z" fill="#D7E9FF" p-id="1618"></path><path d="M693.169231 404.873846c0 7.876923-7.876923 15.753846-15.753846 15.753846h-110.276923c-7.876923 0-15.753846-7.876923-15.753847-15.753846v-31.507692c0-7.876923 7.876923-15.753846 15.753847-15.753846h110.276923c7.876923 0 15.753846 7.876923 15.753846 15.753846v31.507692z" fill="#94C1FF" p-id="1619"></path><path d="M589.193846 420.627692h33.083077l15.753846-63.015384h-31.507692zM630.153846 420.627692h7.876923l17.329231-63.015384h-7.876923z" fill="#D7E9FF" p-id="1620"></path><path d="M512 773.513846c-4.726154 0-7.876923-3.150769-7.876923-7.876923s3.150769-7.876923 7.876923-7.876923 7.876923 3.150769 7.876923 7.876923-3.150769 7.876923-7.876923 7.876923zM512 820.775385c-4.726154 0-7.876923-3.150769-7.876923-7.876923s3.150769-7.876923 7.876923-7.876924 7.876923 3.150769 7.876923 7.876924-3.150769 7.876923-7.876923 7.876923zM512 868.036923c-4.726154 0-7.876923-3.150769-7.876923-7.876923s3.150769-7.876923 7.876923-7.876923 7.876923 3.150769 7.876923 7.876923-3.150769 7.876923-7.876923 7.876923zM512 915.298462c-4.726154 0-7.876923-3.150769-7.876923-7.876924s3.150769-7.876923 7.876923-7.876923 7.876923 3.150769 7.876923 7.876923-3.150769 7.876923-7.876923 7.876924zM512 962.56c-4.726154 0-7.876923-3.150769-7.876923-7.876923s3.150769-7.876923 7.876923-7.876923 7.876923 3.150769 7.876923 7.876923-3.150769 7.876923-7.876923 7.876923z" fill="#116FFF" p-id="1621"></path><path d="M945.230769 907.421538v94.523077H625.427692l20.48-31.507692 31.507693-47.261538-15.753847-47.261539 94.523077-110.276923 31.507693 11.027692c23.630769 7.876923 45.686154 14.178462 63.015384 20.48 63.015385 23.630769 94.523077 47.261538 94.523077 110.276923z" fill="#94C1FF" p-id="1622"></path><path d="M644.332308 771.938462l33.083077-85.07077 23.630769 23.63077 55.138461 55.138461-94.523077 110.276923 15.753847 47.261539-51.987693 78.76923h-70.892307z" fill="#48CFAD" p-id="1623"></path><path d="M644.332308 771.938462l33.083077-85.07077 23.630769 23.63077 55.138461 55.138461-94.523077 110.276923 15.753847 47.261539-51.987693 78.76923h-70.892307z" fill="#D7E9FF" p-id="1624"></path><path d="M913.723077 938.929231c0-63.015385-31.507692-86.646154-94.523077-110.276923-17.329231-6.301538-39.384615-12.603077-63.015385-20.48l-28.356923-9.452308 28.356923-33.083077 31.507693 11.027692c23.630769 7.876923 45.686154 14.178462 63.015384 20.48 63.015385 23.630769 94.523077 47.261538 94.523077 110.276923v94.523077h-31.507692v-63.015384z" fill="#5C9EFF" p-id="1625"></path><path d="M512 710.498462c-45.686154 0-102.4-29.932308-154.387692-78.769231-69.316923-66.166154-118.153846-157.538462-126.03077-242.609231 0-4.726154 3.150769-7.876923 6.301539-9.452308 4.726154 0 7.876923 3.150769 9.452308 6.301539 9.452308 81.92 55.138462 168.566154 121.304615 233.156923 48.836923 47.261538 102.4 74.043077 144.935385 74.043077s94.523077-28.356923 144.935384-74.043077c77.193846-74.043077 122.88-171.716923 122.88-264.664616 0-4.726154 3.150769-7.876923 7.876923-7.876923s7.876923 3.150769 7.876923 7.876923c0 96.098462-47.261538 198.498462-129.181538 275.692308-53.563077 50.412308-110.276923 80.344615-155.963077 80.344616zM945.230769 1009.821538H78.769231c-4.726154 0-7.876923-3.150769-7.876923-7.876923v-94.523077c0-67.741538 34.658462-92.947692 99.24923-118.153846 9.452308-3.150769 22.055385-7.876923 34.658462-11.027692l28.356923-9.452308c4.726154-1.575385 7.876923 1.575385 9.452308 4.726154 1.575385 4.726154-1.575385 7.876923-4.726154 9.452308-9.452308 3.150769-20.48 6.301538-29.932308 9.452308-12.603077 4.726154-23.630769 7.876923-33.083077 11.027692-59.864615 22.055385-89.796923 44.110769-89.796923 102.4V992.492308h850.707693v-86.646154c0-58.289231-28.356923-80.344615-89.796924-102.4-9.452308-3.150769-20.48-7.876923-33.083076-11.027692-9.452308-3.150769-18.904615-6.301538-29.932308-9.452308-4.726154-1.575385-6.301538-6.301538-4.726154-9.452308 1.575385-4.726154 6.301538-6.301538 9.452308-4.726154 9.452308 3.150769 20.48 6.301538 28.356923 9.452308 12.603077 4.726154 23.630769 7.876923 34.658461 11.027692 64.590769 23.630769 99.249231 50.412308 99.249231 118.153846v94.523077c3.150769 4.726154 0 7.876923-4.726154 7.876923z" fill="#116FFF" p-id="1626"></path><path d="M362.338462 694.744615c-4.726154 0-7.876923-3.150769-7.876924-7.876923v-61.44c0-4.726154 3.150769-7.876923 7.876924-7.876923s7.876923 3.150769 7.876923 7.876923v61.44c0 4.726154-3.150769 7.876923-7.876923 7.876923zM661.661538 694.744615c-4.726154 0-7.876923-3.150769-7.876923-7.876923v-61.44c0-4.726154 3.150769-7.876923 7.876923-7.876923s7.876923 3.150769 7.876924 7.876923v61.44c0 4.726154-3.150769 7.876923-7.876924 7.876923zM819.2 324.529231c-4.726154 0-7.876923-3.150769-7.876923-7.876923 0-69.316923-25.206154-138.633846-69.316923-192.196923-56.713846-67.741538-140.209231-107.126154-230.006154-107.126154-165.415385 0-299.323077 133.907692-299.323077 299.323077 0 4.726154-3.150769 7.876923-7.876923 7.876923s-7.876923-3.150769-7.876923-7.876923c0-173.292308 141.784615-315.076923 315.076923-315.076923C604.947692 1.575385 693.169231 42.535385 754.609231 115.003077c47.261538 56.713846 72.467692 127.606154 72.467692 201.649231 0 4.726154-3.150769 7.876923-7.876923 7.876923z" fill="#116FFF" p-id="1627"></path><path d="M897.969231 631.729231c-1.575385 0-3.150769 0-4.726154-1.575385-72.467692-48.836923-83.495385-192.196923-83.495385-274.116923v-39.384615c0-4.726154 3.150769-7.876923 7.876923-7.876923s7.876923 3.150769 7.876923 7.876923v37.80923c0 63.015385 7.876923 215.827692 75.618462 261.513847 3.150769 3.150769 4.726154 7.876923 1.575385 11.027692 0 3.150769-1.575385 4.726154-4.726154 4.726154z" fill="#116FFF" p-id="1628"></path><path d="M724.676923 693.169231c-4.726154 0-7.876923-3.150769-7.876923-7.876923s3.150769-7.876923 7.876923-7.876923c103.975385-9.452308 168.566154-59.864615 168.566154-59.864616 3.150769-3.150769 7.876923-1.575385 11.027692 1.575385 3.150769 3.150769 1.575385 7.876923-1.575384 11.027692-3.150769 3.150769-69.316923 55.138462-178.018462 63.015385zM126.030769 631.729231c-3.150769 0-4.726154-1.575385-6.301538-3.150769-3.150769-3.150769-1.575385-7.876923 1.575384-11.027693 59.864615-39.384615 72.467692-162.264615 75.618462-231.581538v-29.932308c0-23.630769-1.575385-37.809231-1.575385-37.809231 0-4.726154 3.150769-7.876923 7.876923-7.876923s7.876923 3.150769 7.876923 7.876923c0 0 1.575385 15.753846 1.575385 39.384616v31.507692c-3.150769 88.221538-20.48 201.649231-83.495385 244.184615 0-1.575385-1.575385-1.575385-3.150769-1.575384z" fill="#116FFF" p-id="1629"></path><path d="M299.323077 693.169231c-110.276923-7.876923-174.867692-59.864615-178.018462-63.015385-3.150769-3.150769-4.726154-7.876923-1.575384-11.027692 3.150769-3.150769 7.876923-3.150769 11.027692-1.575385 0 0 64.590769 51.987692 168.566154 59.864616 4.726154 0 7.876923 4.726154 7.876923 7.876923 0 4.726154-4.726154 7.876923-7.876923 7.876923zM204.8 363.913846c-4.726154 0-7.876923-3.150769-7.876923-7.876923s3.150769-7.876923 7.876923-7.876923c159.113846-11.027692 296.172308-50.412308 404.873846-118.153846C702.621538 173.292308 740.430769 116.578462 740.430769 115.003077c3.150769-3.150769 7.876923-4.726154 11.027693-1.575385 4.726154 3.150769 4.726154 7.876923 3.150769 11.027693-1.575385 3.150769-39.384615 59.864615-135.483077 119.72923-111.852308 67.741538-250.486154 108.701538-414.326154 119.729231 1.575385 0 1.575385 0 0 0z" fill="#116FFF" p-id="1630"></path><path d="M819.2 333.981538c-1.575385 0-1.575385 0 0 0-108.701538-7.876923-204.8-86.646154-209.526154-89.796923-3.150769-3.150769-3.150769-7.876923-1.575384-11.027692 3.150769-3.150769 7.876923-3.150769 11.027692-1.575385 1.575385 0 97.673846 78.769231 200.073846 86.646154 4.726154 0 7.876923 4.726154 7.876923 7.876923-1.575385 4.726154-4.726154 7.876923-7.876923 7.876923zM456.861538 426.929231h-110.276923c-12.603077 0-23.630769-11.027692-23.630769-23.630769v-31.507693c0-12.603077 11.027692-23.630769 23.630769-23.630769h110.276923c12.603077 0 23.630769 11.027692 23.63077 23.630769v31.507693c0 14.178462-11.027692 23.630769-23.63077 23.630769z m-110.276923-63.015385c-4.726154 0-7.876923 3.150769-7.876923 7.876923v31.507693c0 4.726154 3.150769 7.876923 7.876923 7.876923h110.276923c4.726154 0 7.876923-3.150769 7.876924-7.876923v-31.507693c0-4.726154-3.150769-7.876923-7.876924-7.876923h-110.276923zM677.415385 426.929231h-110.276923c-12.603077 0-23.630769-11.027692-23.63077-23.630769v-31.507693c0-12.603077 11.027692-23.630769 23.63077-23.630769h110.276923c12.603077 0 23.630769 11.027692 23.630769 23.630769v31.507693c0 14.178462-11.027692 23.630769-23.630769 23.630769z m-110.276923-63.015385c-4.726154 0-7.876923 3.150769-7.876924 7.876923v31.507693c0 4.726154 3.150769 7.876923 7.876924 7.876923h110.276923c4.726154 0 7.876923-3.150769 7.876923-7.876923v-31.507693c0-4.726154-3.150769-7.876923-7.876923-7.876923h-110.276923z" fill="#116FFF" p-id="1631"></path><path d="M551.384615 396.996923h-78.76923c-4.726154 0-7.876923-3.150769-7.876923-7.876923s3.150769-7.876923 7.876923-7.876923h78.76923c4.726154 0 7.876923 3.150769 7.876923 7.876923s-3.150769 7.876923-7.876923 7.876923zM398.572308 1009.821538c-3.150769 0-4.726154-1.575385-6.301539-3.150769l-51.987692-78.769231c-1.575385-1.575385-1.575385-4.726154-1.575385-6.301538l14.178462-42.535385-91.372308-107.126153c-3.150769-3.150769-3.150769-7.876923 0-11.027693l78.769231-78.769231c3.150769-3.150769 7.876923-3.150769 11.027692 0s3.150769 7.876923 0 11.027693l-74.043077 74.043077 89.796923 103.975384c1.575385 1.575385 3.150769 4.726154 1.575385 7.876923l-14.178462 44.11077 50.412308 75.618461c3.150769 3.150769 1.575385 7.876923-1.575384 11.027692h-4.726154z" fill="#116FFF" p-id="1632"></path><path d="M469.464615 1009.821538c-3.150769 0-6.301538-1.575385-7.876923-4.726153l-124.455384-315.076923c-1.575385-4.726154 0-7.876923 4.726154-9.452308 4.726154-1.575385 7.876923 0 9.452307 4.726154l33.083077 85.070769 91.372308 230.006154c1.575385 4.726154 0 7.876923-4.726154 9.452307h-1.575385zM625.427692 1009.821538c-1.575385 0-3.150769 0-4.726154-1.575384-3.150769-3.150769-4.726154-7.876923-1.575384-11.027692l50.412308-75.618462-14.178462-44.110769c-1.575385-3.150769 0-6.301538 1.575385-7.876923l89.796923-103.975385-75.618462-72.467692c-3.150769-3.150769-3.150769-7.876923 0-11.027693s7.876923-3.150769 11.027692 0l78.769231 78.769231c3.150769 3.150769 3.150769 7.876923 0 11.027693l-91.372307 107.126153 14.178461 42.535385c0 1.575385 0 4.726154-1.575385 6.301538l-51.987692 78.769231c0 1.575385-1.575385 3.150769-4.726154 3.150769z" fill="#116FFF" p-id="1633"></path><path d="M554.535385 1009.821538H551.384615c-4.726154-1.575385-6.301538-6.301538-4.726153-9.452307l122.88-315.076923c1.575385-4.726154 6.301538-6.301538 9.452307-4.726154 4.726154 1.575385 6.301538 6.301538 4.726154 9.452308l-122.88 315.076923c0 3.150769-3.150769 4.726154-6.301538 4.726153zM393.846154 773.513846c-3.150769 0-6.301538-1.575385-7.876923-4.726154-1.575385-4.726154 0-7.876923 4.726154-9.452307l118.153846-47.261539c4.726154-1.575385 7.876923 0 9.452307 4.726154 1.575385 4.726154 0 7.876923-4.726153 9.452308l-118.153847 47.261538H393.846154z" fill="#116FFF" p-id="1634"></path><path d="M630.153846 773.513846h-3.150769l-118.153846-47.261538c-4.726154-1.575385-6.301538-6.301538-4.726154-11.027693 1.575385-4.726154 6.301538-6.301538 11.027692-4.726153l118.153846 47.261538c4.726154 1.575385 6.301538 6.301538 4.726154 11.027692-1.575385 3.150769-4.726154 4.726154-7.876923 4.726154z" fill="#116FFF" p-id="1635"></path></svg>